<?xml version="1.0" standalone="no"?>
<!DOCTYPE svg PUBLIC "-//W3C//DTD SVG 20010904//EN"
 "http://www.w3.org/TR/2001/REC-SVG-20010904/DTD/svg10.dtd">
<svg version="1.0" xmlns="http://www.w3.org/2000/svg"
 width="840.000000pt" height="859.000000pt" viewBox="0 0 840.000000 859.000000"
 preserveAspectRatio="xMidYMid meet">

<g transform="translate(0.000000,859.000000) scale(0.100000,-0.100000)"
fill="#000000" stroke="none">
<path d="M8323 8085 c-7 -8 -13 -17 -13 -20 0 -8 -27 -35 -35 -35 -4 0 -13 -6
-21 -14 -8 -8 -14 -17 -14 -21 0 -4 -6 -13 -14 -21 -8 -8 -17 -14 -21 -14 -10
0 -35 -28 -35 -39 0 -6 -4 -11 -10 -11 -5 0 -27 -16 -47 -35 -20 -19 -43 -35
-50 -35 -7 0 -13 -6 -13 -13 0 -7 -12 -21 -26 -32 -15 -11 -45 -37 -68 -57
-23 -21 -45 -38 -50 -38 -5 0 -23 -16 -42 -35 -18 -19 -38 -35 -44 -35 -6 0
-21 -11 -34 -25 -13 -14 -28 -25 -35 -25 -6 0 -11 -4 -11 -10 0 -5 -9 -10 -20
-10 -11 0 -20 -5 -20 -11 0 -15 -31 -38 -50 -39 -9 0 -22 -9 -30 -20 -8 -11
-20 -20 -27 -20 -7 0 -23 -11 -37 -25 -14 -14 -34 -25 -46 -25 -11 0 -20 -5
-20 -11 0 -16 -31 -38 -52 -39 -10 0 -18 -4 -18 -10 0 -5 -7 -10 -15 -10 -8 0
-15 -4 -15 -8 0 -5 -19 -17 -42 -28 -24 -10 -45 -21 -48 -25 -3 -3 -24 -14
-47 -24 -24 -11 -43 -22 -43 -27 0 -4 -7 -8 -15 -8 -8 0 -15 -4 -15 -10 0 -5
-6 -10 -14 -10 -18 0 -76 -32 -76 -42 0 -5 -9 -8 -21 -8 -11 0 -27 -7 -36 -15
-8 -9 -35 -21 -59 -27 -24 -7 -44 -16 -44 -20 0 -4 -7 -8 -15 -8 -8 0 -15 -4
-15 -10 0 -5 -8 -10 -18 -10 -10 0 -27 -7 -38 -15 -10 -8 -27 -15 -36 -15 -10
0 -18 -4 -18 -10 0 -5 -11 -10 -24 -10 -13 0 -26 -3 -28 -7 -5 -12 -76 -43
-98 -43 -11 0 -20 -4 -20 -10 0 -5 -9 -10 -20 -10 -11 0 -20 -4 -20 -8 0 -5
-27 -17 -60 -28 -33 -10 -60 -22 -60 -26 0 -5 -11 -8 -25 -8 -14 0 -25 -4 -25
-9 0 -5 -16 -12 -35 -15 -19 -4 -35 -11 -35 -16 0 -6 -11 -10 -25 -10 -14 0
-25 -4 -25 -10 0 -5 -16 -10 -35 -10 -19 0 -35 -4 -35 -9 0 -5 -16 -12 -35
-15 -19 -4 -35 -11 -35 -16 0 -6 -16 -10 -35 -10 -19 0 -35 -4 -35 -10 0 -5
-14 -10 -31 -10 -17 0 -37 -7 -45 -15 -9 -8 -26 -15 -40 -15 -13 0 -24 -4 -24
-10 0 -5 -16 -10 -35 -10 -19 0 -35 -4 -35 -10 0 -5 -20 -10 -45 -10 -25 0
-45 -4 -45 -9 0 -5 -20 -12 -45 -15 -24 -4 -47 -11 -50 -17 -4 -5 -22 -9 -41
-9 -19 0 -34 -4 -34 -9 0 -5 -24 -11 -52 -14 -64 -6 -157 -26 -180 -38 -10 -5
-40 -9 -68 -9 -27 0 -50 -4 -50 -10 0 -6 -29 -10 -66 -10 -36 0 -74 -5 -85
-11 -11 -5 -51 -13 -90 -16 -38 -3 -69 -9 -69 -12 0 -4 -46 -8 -102 -10 -57
-1 -105 -6 -108 -10 -3 -5 -59 -11 -125 -15 -65 -3 -124 -11 -129 -16 -6 -6
-54 -10 -108 -10 -59 0 -98 -4 -98 -10 0 -6 -50 -10 -130 -10 -80 0 -130 -4
-130 -10 0 -5 -17 -10 -37 -10 -48 0 -215 -30 -229 -41 -6 -5 -15 -4 -21 2 -8
8 -13 8 -17 0 -4 -6 -23 -11 -42 -11 -19 0 -34 -4 -34 -10 0 -5 -24 -10 -54
-10 -30 0 -57 -4 -60 -9 -3 -4 -31 -11 -63 -14 -32 -3 -59 -11 -61 -17 -2 -5
-24 -10 -48 -10 -24 0 -44 -4 -44 -10 0 -5 -20 -10 -45 -10 -25 0 -45 -4 -45
-10 0 -5 -16 -12 -35 -16 -19 -3 -35 -10 -35 -15 0 -5 -20 -9 -43 -9 -24 0
-47 -3 -50 -6 -10 -10 -109 -43 -129 -44 -10 0 -18 -4 -18 -10 0 -5 -11 -10
-25 -10 -14 0 -25 -4 -25 -10 0 -5 -13 -10 -28 -10 -16 0 -37 -7 -48 -15 -10
-8 -27 -15 -36 -15 -10 0 -18 -4 -18 -10 0 -5 -8 -10 -19 -10 -10 0 -44 -11
-75 -25 -31 -14 -65 -25 -76 -25 -11 0 -20 -4 -20 -8 0 -4 -20 -16 -45 -26
-25 -11 -45 -23 -45 -28 0 -4 -11 -8 -25 -8 -14 0 -25 -4 -25 -8 0 -4 -20 -16
-45 -26 -25 -11 -45 -23 -45 -28 0 -4 -11 -8 -25 -8 -14 0 -25 -4 -25 -10 0
-5 -6 -10 -14 -10 -7 0 -19 -7 -26 -15 -7 -8 -21 -15 -31 -15 -11 0 -19 -4
-19 -10 0 -5 -7 -10 -15 -10 -8 0 -15 -3 -15 -7 0 -11 -58 -43 -76 -43 -8 0
-14 -4 -14 -10 0 -5 -7 -10 -15 -10 -8 0 -15 -3 -15 -8 0 -4 -16 -16 -35 -26
-19 -11 -35 -23 -35 -28 0 -4 -9 -8 -20 -8 -11 0 -20 -4 -20 -10 0 -5 -5 -10
-11 -10 -6 0 -17 -6 -24 -12 -31 -28 -44 -38 -50 -38 -4 0 -13 -6 -20 -12 -30
-27 -44 -38 -50 -38 -3 0 -17 -11 -31 -25 -14 -14 -28 -25 -32 -25 -4 0 -19
-10 -34 -23 -15 -13 -39 -32 -54 -43 -14 -10 -48 -40 -75 -66 -27 -27 -51 -48
-55 -48 -9 0 -34 -28 -34 -39 0 -6 -7 -11 -15 -11 -8 0 -15 -4 -15 -9 0 -5 -9
-12 -19 -16 -10 -3 -21 -15 -24 -25 -3 -12 -14 -20 -26 -20 -12 0 -21 -5 -21
-10 0 -14 -46 -60 -60 -60 -5 0 -10 -7 -10 -15 0 -9 -16 -31 -35 -49 -19 -19
-35 -37 -35 -41 0 -10 -28 -35 -39 -35 -6 0 -11 -5 -11 -10 0 -6 -10 -22 -23
-35 -32 -35 -47 -53 -47 -60 0 -3 -16 -22 -35 -42 -19 -20 -35 -41 -35 -46 0
-5 -6 -14 -12 -21 -7 -7 -22 -25 -33 -40 -11 -16 -26 -34 -32 -41 -7 -8 -13
-16 -13 -20 0 -4 -6 -13 -12 -20 -30 -33 -38 -45 -38 -55 0 -5 -4 -10 -10 -10
-5 0 -10 -7 -10 -15 0 -9 -11 -26 -25 -39 -14 -13 -25 -31 -25 -40 0 -9 -4
-16 -10 -16 -5 0 -10 -7 -10 -15 0 -8 -4 -15 -9 -15 -5 0 -13 -10 -17 -22 -4
-13 -15 -30 -25 -39 -11 -9 -19 -24 -19 -33 0 -10 -6 -24 -12 -31 -30 -33 -38
-45 -38 -55 0 -5 -4 -10 -10 -10 -5 0 -10 -6 -10 -14 0 -18 -32 -76 -42 -76
-5 0 -8 -7 -8 -15 0 -16 -49 -97 -63 -103 -4 -2 -7 -15 -7 -28 0 -13 -4 -24
-10 -24 -5 0 -10 -9 -10 -19 0 -10 -7 -21 -15 -25 -8 -3 -15 -15 -15 -26 0
-11 -4 -20 -10 -20 -5 0 -10 -11 -10 -25 0 -14 -4 -25 -10 -25 -5 0 -10 -8
-10 -18 0 -10 -7 -27 -15 -38 -8 -10 -15 -27 -15 -36 0 -10 -4 -18 -10 -18 -5
0 -10 -8 -10 -17 -1 -21 -34 -120 -44 -130 -3 -3 -6 -19 -6 -35 0 -15 -4 -28
-10 -28 -5 0 -10 -15 -10 -34 0 -19 -4 -37 -9 -41 -6 -3 -13 -26 -17 -50 -3
-25 -10 -45 -15 -45 -5 0 -9 -20 -9 -45 0 -25 -4 -45 -9 -45 -10 0 -16 -28
-33 -137 -6 -40 -15 -73 -20 -73 -4 0 -8 -22 -8 -50 0 -27 -4 -50 -10 -50 -6
0 -10 -28 -10 -63 0 -34 -5 -78 -10 -97 -6 -19 -13 -74 -17 -122 -3 -49 -10
-88 -14 -88 -13 0 -11 -798 2 -802 9 -3 19 -80 35 -266 3 -34 10 -62 15 -62 5
0 9 -25 9 -56 0 -30 5 -65 11 -76 11 -21 25 -93 36 -191 3 -26 9 -47 14 -47 5
0 9 -19 9 -43 0 -24 4 -47 9 -52 10 -11 30 -89 38 -148 3 -20 9 -37 14 -37 5
0 9 -20 9 -45 0 -31 5 -47 15 -51 9 -4 15 -19 15 -40 0 -19 5 -34 10 -34 6 0
10 -20 10 -45 0 -25 5 -45 10 -45 6 0 10 33 10 80 0 47 -4 80 -10 80 -6 0 -10
132 -10 375 0 229 4 375 9 375 6 0 12 59 14 133 6 162 25 331 38 335 5 2 9 35
9 73 0 39 4 69 10 69 6 0 10 27 10 60 0 33 4 60 9 60 4 0 11 27 15 60 4 33 11
60 16 60 6 0 10 20 10 45 0 25 4 45 9 45 5 0 11 17 14 38 8 60 25 116 36 120
6 2 11 19 11 38 0 19 5 34 10 34 6 0 10 11 10 25 0 14 4 25 10 25 5 0 12 16
16 35 3 19 10 35 15 35 5 0 9 11 9 25 0 14 5 25 10 25 6 0 10 6 10 14 0 7 7
19 15 26 8 7 15 21 15 31 0 11 5 19 10 19 6 0 10 11 10 25 0 14 3 25 8 25 4 0
15 20 25 45 11 25 23 45 28 45 5 0 9 11 9 25 0 14 5 25 10 25 6 0 10 7 10 15
0 8 11 25 25 39 14 14 25 34 25 46 0 11 5 20 10 20 6 0 10 9 10 20 0 11 7 23
15 26 8 4 15 15 15 25 0 10 5 19 10 19 6 0 10 7 10 15 0 8 5 15 10 15 6 0 10
7 10 15 0 9 11 26 25 39 14 13 25 31 25 40 0 9 5 16 10 16 6 0 10 5 10 11 0 6
6 17 13 24 27 31 37 44 37 50 0 4 6 13 13 20 26 30 37 44 37 50 0 3 11 17 25
31 14 14 25 30 25 37 0 7 9 19 20 27 11 8 20 18 20 23 0 8 12 24 47 62 13 13
23 29 23 35 0 5 5 10 11 10 11 0 39 25 39 35 0 3 21 28 48 55 77 81 92 99 92
110 0 5 7 10 15 10 9 0 31 16 49 35 19 19 37 35 41 35 10 0 35 28 35 39 0 6 7
11 15 11 8 0 15 5 15 10 0 6 7 10 16 10 8 0 30 16 48 35 19 19 39 35 45 35 7
0 22 11 35 25 13 14 31 25 40 25 9 0 16 5 16 10 0 6 7 10 15 10 8 0 15 3 15 8
0 10 58 42 76 42 8 0 14 4 14 9 0 5 11 12 25 15 14 4 25 11 25 16 0 6 9 10 20
10 11 0 20 5 20 10 0 6 11 10 25 10 14 0 25 5 25 10 0 6 11 10 25 10 16 0 25
6 25 15 0 9 9 15 25 15 14 0 25 5 25 10 0 6 16 10 35 10 19 0 35 5 35 10 0 6
14 10 31 10 17 0 37 7 45 15 9 8 26 15 40 15 13 0 24 5 24 10 0 6 20 10 45 10
25 0 45 5 45 10 0 6 21 10 46 10 27 0 51 6 60 15 9 9 34 15 60 15 24 0 44 5
44 10 0 6 30 10 70 10 40 0 70 4 70 10 0 6 29 10 68 10 38 0 91 7 118 15 28 8
88 15 141 15 50 0 95 5 98 10 4 6 72 10 171 10 90 0 164 4 164 9 0 4 100 11
223 14 122 3 240 11 262 16 22 6 111 11 198 12 86 1 157 5 157 10 0 5 59 9
130 9 80 0 130 4 130 10 0 6 39 10 98 10 57 0 117 6 146 15 29 9 89 15 148 15
59 0 98 4 98 10 0 6 35 10 85 10 50 0 85 4 85 10 0 6 28 10 63 10 35 0 86 7
113 15 27 8 73 15 102 15 28 0 52 5 52 10 0 6 28 10 65 10 37 0 65 4 65 10 0
6 21 10 48 10 26 1 58 7 72 15 14 8 46 14 73 15 26 0 47 5 47 10 0 6 20 10 45
10 25 0 45 4 45 9 0 5 20 12 45 15 24 4 47 11 50 17 4 5 22 9 41 9 19 0 34 5
34 10 0 6 20 10 45 10 25 0 45 4 45 10 0 5 16 12 35 16 19 3 35 10 35 15 0 5
11 9 25 9 14 0 25 5 25 10 0 6 16 10 35 10 19 0 35 4 35 10 0 5 16 12 35 16
19 3 35 10 35 15 0 5 11 9 25 9 14 0 25 5 25 10 0 6 9 10 20 10 11 0 20 4 20
10 0 5 16 12 35 16 19 3 35 10 35 15 0 5 9 9 20 9 11 0 20 5 20 10 0 6 8 10
19 10 10 0 24 7 31 15 7 8 21 15 31 15 11 0 19 5 19 10 0 6 11 10 25 10 15 0
25 6 25 14 0 8 16 20 35 27 19 7 35 17 35 21 0 4 9 8 20 8 11 0 20 5 20 10 0
6 16 18 35 27 19 9 35 20 35 25 0 4 7 8 15 8 8 0 15 4 15 8 0 4 15 16 33 27
17 10 39 27 48 37 9 10 20 18 23 18 4 0 25 17 47 38 69 66 88 82 99 82 5 0 10
5 10 10 0 14 46 60 60 60 5 0 10 5 10 10 0 11 10 25 48 65 12 13 22 27 22 30
0 3 16 22 35 42 19 20 35 43 35 50 0 7 5 13 10 13 6 0 10 5 10 11 0 6 6 17 13
24 29 33 37 45 37 55 0 5 5 10 10 10 6 0 10 9 10 20 0 11 4 20 10 20 5 0 12
11 16 25 3 14 10 25 15 25 5 0 9 9 9 21 0 11 5 17 10 14 6 -3 10 3 10 14 0 12
4 21 10 21 5 0 12 11 16 25 3 14 10 25 15 25 5 0 9 11 9 25 0 14 5 25 10 25 6
0 10 9 10 20 0 11 4 20 10 20 5 0 12 11 16 25 3 14 10 25 15 25 5 0 9 11 9 25
0 14 11 43 25 65 14 22 25 49 25 60 0 11 5 20 10 20 6 0 10 14 10 30 0 17 4
30 10 30 5 0 12 16 16 35 3 19 10 35 15 35 5 0 9 11 9 25 0 14 5 25 10 25 6 0
10 16 10 35 0 19 4 35 9 35 5 0 12 20 15 45 4 25 11 45 17 45 5 0 9 20 9 45 0
25 4 45 9 45 5 0 11 19 14 43 6 48 25 123 38 149 5 10 9 40 9 68 0 27 4 50 9
50 5 0 11 24 14 53 3 28 13 88 23 132 9 44 19 122 21 173 3 50 9 92 14 92 5 0
9 37 9 83 0 73 9 157 26 240 6 30 -12 37 -33 12z"/>
<path d="M7008 4770 c-37 -39 -72 -70 -78 -70 -6 0 -21 -11 -34 -25 -13 -14
-28 -25 -35 -25 -6 0 -11 -4 -11 -10 0 -5 -9 -10 -20 -10 -11 0 -20 -4 -20
-10 0 -5 -11 -12 -25 -16 -14 -3 -25 -10 -25 -15 0 -5 -9 -9 -20 -9 -11 0 -20
-4 -20 -10 0 -5 -11 -10 -25 -10 -14 0 -25 -4 -25 -10 0 -5 -11 -12 -25 -16
-14 -3 -25 -10 -25 -15 0 -5 -11 -9 -25 -9 -14 0 -25 -4 -25 -10 0 -5 -9 -10
-20 -10 -17 0 -66 -18 -112 -41 -10 -5 -29 -9 -43 -9 -14 0 -25 -4 -25 -10 0
-5 -12 -10 -27 -10 -16 -1 -39 -7 -53 -15 -14 -8 -35 -14 -47 -15 -13 0 -23
-4 -23 -10 0 -5 -20 -10 -45 -10 -25 0 -45 -4 -45 -10 0 -5 -14 -10 -30 -10
-17 0 -47 -7 -67 -15 -19 -8 -48 -15 -64 -15 -16 0 -29 -4 -29 -10 0 -6 -27
-10 -60 -10 -33 0 -60 -4 -60 -9 0 -4 -29 -11 -65 -14 -36 -4 -74 -11 -84 -17
-11 -5 -40 -10 -65 -10 -25 0 -46 -4 -46 -10 0 -6 -30 -10 -70 -10 -38 0 -70
-4 -70 -8 0 -5 -42 -12 -93 -15 -52 -3 -106 -11 -121 -17 -39 -14 -988 -14
-1003 1 -18 18 -1053 -4 -1053 -22 0 -5 -35 -9 -77 -9 -43 0 -103 -7 -133 -15
-30 -8 -74 -15 -97 -15 -24 0 -43 -4 -43 -10 0 -6 -27 -10 -60 -10 -33 0 -60
-4 -60 -10 0 -5 -8 -10 -19 -10 -10 0 -35 -7 -54 -15 -20 -8 -48 -15 -62 -15
-14 0 -25 -4 -25 -10 0 -5 -16 -10 -35 -10 -19 0 -35 -4 -35 -10 0 -5 -10 -10
-23 -10 -13 0 -32 -7 -43 -15 -10 -8 -27 -15 -36 -15 -10 0 -18 -4 -18 -10 0
-5 -16 -10 -35 -10 -19 0 -35 -4 -35 -8 0 -4 -22 -16 -50 -27 -27 -11 -50 -23
-50 -27 0 -4 -9 -8 -20 -8 -11 0 -20 -4 -20 -10 0 -5 -11 -10 -25 -10 -14 0
-25 -4 -25 -10 0 -5 -11 -12 -25 -16 -14 -3 -25 -10 -25 -15 0 -5 -9 -9 -20
-9 -11 0 -20 -4 -20 -9 0 -5 -11 -12 -25 -15 -14 -4 -25 -11 -25 -16 0 -6 -9
-10 -20 -10 -11 0 -20 -4 -20 -10 0 -5 -7 -10 -15 -10 -8 0 -15 -3 -15 -8 0
-4 -16 -16 -35 -26 -19 -11 -35 -23 -35 -28 0 -4 -9 -8 -20 -8 -11 0 -20 -5
-20 -10 0 -6 -16 -18 -35 -27 -19 -9 -35 -20 -35 -25 0 -4 -5 -8 -10 -8 -6 0
-23 -11 -38 -25 -15 -14 -31 -25 -35 -25 -5 0 -23 -16 -41 -35 -19 -19 -36
-35 -40 -35 -8 0 -26 -14 -71 -57 -19 -18 -39 -33 -45 -33 -5 0 -10 -5 -10
-11 0 -11 -25 -39 -35 -39 -11 0 -195 -188 -195 -200 0 -5 -7 -10 -15 -10 -8
0 -15 -7 -15 -15 0 -8 -4 -15 -10 -15 -5 0 -10 -6 -10 -14 0 -7 -11 -22 -25
-32 -14 -10 -25 -22 -25 -27 0 -4 -11 -19 -25 -33 -14 -14 -25 -28 -25 -32 0
-4 -14 -23 -30 -42 -17 -19 -33 -43 -36 -52 -3 -10 -10 -18 -15 -18 -5 0 -9
-7 -9 -15 0 -8 -3 -15 -8 -15 -4 0 -16 -16 -26 -35 -11 -19 -23 -35 -28 -35
-4 0 -8 -9 -8 -20 0 -11 -4 -20 -10 -20 -5 0 -10 -6 -10 -13 0 -8 -11 -27 -25
-43 -14 -16 -25 -37 -25 -46 0 -10 -4 -18 -10 -18 -5 0 -10 -6 -10 -14 0 -18
-32 -76 -42 -76 -5 0 -8 -11 -8 -25 0 -14 -4 -25 -10 -25 -5 0 -10 -8 -10 -17
0 -10 -7 -27 -15 -37 -8 -11 -15 -28 -15 -38 0 -10 -4 -18 -10 -18 -5 0 -10
-11 -10 -25 0 -14 -4 -25 -8 -25 -5 0 -16 -27 -26 -60 -10 -33 -22 -60 -27
-60 -5 0 -9 -16 -9 -35 0 -19 -4 -35 -10 -35 -5 0 -10 -16 -10 -35 0 -19 -4
-35 -9 -35 -5 0 -12 -22 -16 -50 -4 -27 -11 -50 -16 -50 -5 0 -9 -20 -9 -45 0
-25 -4 -45 -10 -45 -5 0 -10 -19 -10 -42 0 -24 -7 -68 -15 -98 -8 -30 -15 -74
-15 -97 0 -24 -4 -43 -10 -43 -6 0 -10 -42 -10 -105 0 -58 -4 -105 -8 -105
-12 0 -25 -501 -16 -579 7 -69 24 -72 24 -5 0 24 5 44 10 44 6 0 10 24 10 53
1 30 7 60 15 71 8 11 15 35 15 53 0 18 5 33 10 33 6 0 10 20 10 45 0 25 4 45
9 45 5 0 11 12 14 27 25 120 31 143 39 143 4 0 8 16 8 35 0 19 5 35 10 35 6 0
10 9 10 20 0 22 31 93 43 98 4 2 7 19 7 38 0 19 5 34 10 34 6 0 10 9 10 20 0
11 4 20 10 20 5 0 12 16 16 35 3 19 10 35 15 35 5 0 9 11 9 25 0 14 4 25 8 25
4 0 16 23 27 50 11 28 23 50 27 50 4 0 8 9 8 20 0 11 3 20 8 20 4 0 15 20 25
45 11 25 23 45 28 45 5 0 9 11 9 25 0 14 4 25 8 25 5 0 17 16 28 35 10 19 22
35 26 35 5 0 8 7 8 15 0 8 5 15 10 15 6 0 10 8 10 19 0 10 7 24 15 31 8 7 15
19 15 26 0 8 4 14 8 14 4 0 16 15 27 32 10 18 27 40 37 49 10 9 18 20 18 23 0
4 6 14 12 21 27 30 38 44 38 50 0 3 10 17 23 30 33 36 47 53 47 60 0 9 288
295 297 295 5 0 20 11 35 25 15 14 30 25 33 25 4 0 13 6 20 13 33 29 45 37 55
37 5 0 10 5 10 10 0 6 9 10 20 10 11 0 20 3 20 8 0 4 16 16 35 26 19 11 35 23
35 28 0 4 11 8 25 8 14 0 25 4 25 10 0 5 11 12 25 16 14 3 25 10 25 15 0 5 9
9 20 9 11 0 20 5 20 10 0 6 15 10 34 10 21 0 36 6 40 15 3 8 15 15 26 15 11 0
20 5 20 10 0 6 16 10 35 10 19 0 35 5 35 10 0 6 16 10 35 10 19 0 35 4 35 9 0
6 20 13 45 17 25 3 45 10 45 15 0 5 23 9 50 9 28 0 50 5 50 10 0 6 33 10 79
10 55 0 81 4 83 13 7 20 494 23 581 3 38 -9 97 -16 133 -16 35 0 64 -4 64 -9
0 -5 28 -12 63 -14 34 -3 100 -13 147 -22 47 -9 109 -19 138 -22 28 -3 52 -9
52 -13 0 -5 26 -10 58 -13 88 -7 212 -30 212 -39 0 -4 34 -8 75 -8 43 0 75 -4
75 -10 0 -6 28 -10 63 -10 34 0 77 -4 96 -10 18 -5 85 -12 147 -16 63 -4 114
-11 114 -15 0 -5 83 -9 185 -9 102 0 185 4 185 8 0 5 67 12 150 16 82 3 161
11 176 16 14 6 48 10 75 10 27 0 49 5 49 10 0 6 23 10 50 10 28 0 50 5 50 10
0 6 15 10 33 10 17 1 43 7 57 15 14 8 40 14 58 15 17 0 32 5 32 10 0 6 14 10
30 10 17 0 38 4 48 9 46 23 95 41 112 41 11 0 20 5 20 10 0 6 11 10 25 10 14
0 25 5 25 10 0 6 9 10 20 10 22 0 93 31 98 43 2 4 17 7 33 7 17 0 32 6 35 15
3 8 21 20 40 27 19 6 34 16 34 20 0 4 9 8 19 8 10 0 21 7 25 15 3 8 14 15 23
15 10 0 25 9 33 20 8 11 18 20 23 20 8 0 24 12 62 48 13 12 27 22 29 22 8 0
206 198 206 205 0 3 10 17 23 30 33 36 47 53 47 60 0 3 11 17 25 31 14 14 25
31 25 39 0 8 4 15 9 15 5 0 16 16 25 35 9 19 21 35 26 35 6 0 10 9 10 20 0 11
5 20 10 20 6 0 10 7 10 15 0 8 5 15 10 15 6 0 10 6 10 14 0 17 32 80 43 84 4
2 7 12 7 23 0 10 5 19 10 19 6 0 10 8 10 18 0 9 7 26 15 36 8 11 15 30 15 43
0 13 5 23 10 23 6 0 10 9 10 20 0 11 4 20 10 20 5 0 12 16 16 35 3 19 10 35
15 35 5 0 9 11 9 25 0 14 4 25 9 25 5 0 11 12 14 28 12 64 27 107 36 110 6 2
11 19 11 38 0 19 5 34 10 34 6 0 10 13 10 29 0 16 7 45 15 64 8 20 15 50 15
67 0 16 5 30 10 30 6 0 10 16 10 35 0 19 -3 35 -7 35 -5 -1 -38 -32 -75 -70z"/>
<path d="M2680 2550 c0 -6 -45 -10 -115 -10 -63 0 -115 -4 -115 -8 0 -7 -64
-19 -202 -39 -21 -3 -38 -9 -38 -14 0 -5 -16 -9 -35 -9 -19 0 -35 -4 -35 -10
0 -5 -7 -10 -16 -10 -22 0 -118 -33 -122 -42 -2 -5 -19 -8 -38 -8 -19 0 -34
-4 -34 -10 0 -5 -11 -12 -25 -16 -14 -3 -25 -10 -25 -15 0 -5 -9 -9 -20 -9
-11 0 -20 -4 -20 -10 0 -5 -11 -10 -25 -10 -14 0 -25 -4 -25 -9 0 -5 -11 -12
-25 -15 -14 -4 -25 -11 -25 -16 0 -6 -9 -10 -20 -10 -11 0 -20 -4 -20 -10 0
-5 -7 -10 -15 -10 -8 0 -15 -4 -15 -10 0 -5 -11 -12 -25 -16 -14 -3 -25 -10
-25 -15 0 -5 -9 -9 -20 -9 -11 0 -20 -4 -20 -10 0 -5 -5 -10 -11 -10 -6 0 -17
-6 -24 -12 -30 -27 -44 -38 -50 -38 -3 0 -17 -10 -30 -22 -36 -34 -53 -48 -60
-48 -3 0 -18 -11 -33 -25 -15 -14 -31 -25 -35 -25 -5 0 -33 -25 -62 -55 -30
-30 -59 -55 -65 -55 -5 0 -10 -5 -10 -10 0 -14 -46 -60 -60 -60 -5 0 -10 -5
-10 -11 0 -11 -25 -39 -35 -39 -8 0 -35 -27 -35 -35 0 -4 -20 -27 -45 -52 -25
-24 -45 -49 -45 -54 0 -5 -16 -25 -35 -43 -19 -19 -35 -39 -35 -46 0 -6 -11
-21 -25 -34 -14 -13 -25 -28 -25 -35 0 -6 -4 -11 -10 -11 -5 0 -10 -7 -10 -16
0 -9 -11 -27 -25 -40 -14 -13 -25 -30 -25 -39 0 -8 -4 -15 -8 -15 -4 0 -14
-16 -21 -36 -7 -19 -19 -38 -27 -41 -8 -3 -14 -14 -14 -24 0 -10 -4 -19 -10
-19 -5 0 -10 -6 -10 -14 0 -18 -32 -76 -42 -76 -5 0 -8 -11 -8 -25 0 -14 -4
-25 -10 -25 -5 0 -10 -9 -10 -21 0 -11 -7 -27 -15 -35 -8 -9 -15 -24 -15 -35
0 -10 -4 -19 -10 -19 -5 0 -10 -11 -10 -25 0 -14 -4 -25 -10 -25 -5 0 -10 -9
-10 -20 0 -22 -31 -93 -42 -98 -5 -2 -8 -19 -8 -37 0 -18 -5 -35 -11 -37 -6
-2 -9 -20 -6 -43 3 -34 5 -37 12 -17 4 12 11 22 16 22 5 0 9 9 9 20 0 11 4 20
10 20 5 0 12 11 16 25 3 14 10 25 15 25 5 0 9 9 9 20 0 11 4 20 9 20 5 0 12
11 15 25 4 14 11 25 16 25 6 0 10 7 10 15 0 8 5 15 10 15 6 0 10 9 10 20 0 11
5 20 10 20 6 0 10 6 10 13 0 7 11 24 25 39 14 15 25 32 25 38 0 5 5 10 10 10
6 0 10 9 10 20 0 11 7 20 15 20 8 0 15 5 15 10 0 6 11 22 25 36 14 14 25 29
25 34 0 9 235 250 244 250 7 0 25 13 61 48 13 12 27 22 30 22 4 0 13 6 20 13
33 29 45 37 55 37 5 0 10 5 10 10 0 6 9 10 20 10 11 0 20 4 20 8 0 5 16 17 35
28 19 10 35 22 35 26 0 5 11 8 25 8 14 0 25 5 25 11 0 16 31 38 53 39 9 0 17
5 17 10 0 6 11 10 25 10 14 0 25 4 25 9 0 5 20 17 45 28 25 10 45 21 45 26 0
4 11 7 25 7 14 0 25 4 25 9 0 6 20 13 45 17 25 3 45 10 45 15 0 5 16 9 35 9
19 0 35 5 35 10 0 6 15 10 34 10 18 0 47 7 62 15 16 8 55 15 87 15 33 0 57 4
57 11 0 7 39 9 118 6 143 -4 352 -27 352 -39 0 -4 27 -8 60 -8 33 0 60 -4 60
-10 0 -5 13 -10 29 -10 17 0 32 -4 36 -9 3 -6 26 -13 50 -17 25 -3 45 -10 45
-15 0 -5 16 -9 35 -9 19 0 35 -4 35 -10 0 -5 13 -10 29 -10 17 0 33 -4 36 -10
3 -5 15 -10 26 -10 11 0 22 -7 25 -15 4 -9 19 -15 40 -15 19 0 34 -4 34 -10 0
-5 12 -10 28 -10 15 0 36 -7 46 -15 11 -8 28 -15 38 -15 10 0 18 -4 18 -10 0
-5 16 -10 35 -10 19 0 35 -4 35 -10 0 -5 10 -10 23 -10 12 0 31 -7 41 -15 11
-8 28 -15 38 -15 10 0 18 -4 18 -10 0 -5 16 -10 35 -10 19 0 35 -4 35 -10 0
-5 10 -10 23 -10 13 0 32 -7 43 -15 10 -8 31 -15 47 -15 15 0 27 -4 27 -10 0
-5 10 -10 23 -10 13 0 27 -3 30 -6 12 -12 112 -43 140 -44 15 0 27 -4 27 -10
0 -5 20 -10 45 -10 25 0 45 -4 45 -10 0 -5 15 -10 33 -10 18 0 42 -7 53 -15
11 -8 41 -14 72 -15 28 0 52 -4 52 -9 0 -19 554 -38 565 -20 4 5 37 9 76 9 39
0 69 4 69 10 0 6 24 10 54 10 30 0 56 5 58 11 2 5 22 13 46 16 23 3 42 10 42
14 0 5 11 9 25 9 14 0 25 5 25 10 0 6 15 10 34 10 21 0 36 6 40 15 3 8 15 15
26 15 11 0 20 5 20 10 0 6 11 10 25 10 14 0 25 5 25 10 0 6 9 10 20 10 11 0
20 4 20 10 0 5 11 12 25 16 14 3 25 10 25 15 0 5 7 9 15 9 8 0 15 5 15 10 0 6
9 10 20 10 11 0 20 7 20 15 0 8 7 15 15 15 8 0 15 5 15 10 0 6 7 10 15 10 8 0
39 25 70 55 31 30 61 55 66 55 5 0 9 7 9 15 0 8 5 15 10 15 14 0 60 46 60 60
0 5 7 10 15 10 8 0 15 4 15 9 0 4 14 22 30 39 17 18 30 34 30 38 0 10 28 34
39 34 6 0 11 9 11 20 0 11 5 20 10 20 6 0 10 5 10 11 0 7 11 22 25 35 14 13
25 30 25 39 0 8 4 15 8 15 5 0 17 16 28 35 10 19 22 35 26 35 5 0 8 9 8 20 0
11 5 20 10 20 6 0 10 7 10 15 0 8 7 15 15 15 8 0 15 9 15 20 0 11 5 20 10 20
6 0 10 7 10 15 0 10 -11 15 -35 15 -19 0 -35 -4 -35 -9 0 -6 -20 -13 -45 -17
-25 -3 -48 -10 -51 -15 -3 -5 -18 -9 -35 -9 -16 0 -29 -4 -29 -10 0 -5 -20
-10 -45 -10 -25 0 -45 -4 -45 -9 0 -4 -27 -11 -60 -15 -33 -4 -62 -11 -65 -16
-4 -6 -42 -10 -86 -10 -46 0 -79 -4 -79 -10 0 -6 -31 -10 -74 -10 -41 0 -86
-4 -101 -10 -39 -15 -324 -34 -480 -32 -172 2 -348 17 -353 32 -2 5 -28 10
-58 10 -30 0 -54 5 -54 10 0 6 -18 10 -40 10 -22 0 -40 4 -40 9 0 5 -20 12
-45 15 -25 4 -45 11 -45 17 0 5 -16 9 -35 9 -19 0 -35 5 -35 10 0 6 -12 10
-26 10 -30 0 -127 31 -132 43 -2 4 -19 7 -38 7 -19 0 -34 5 -34 10 0 6 -16 10
-35 10 -19 0 -35 4 -35 10 0 5 -18 13 -40 16 -22 4 -43 11 -46 15 -3 5 -18 9
-35 9 -16 0 -29 5 -29 10 0 6 -15 10 -32 10 -18 1 -44 7 -58 15 -14 8 -35 14
-47 15 -13 0 -23 5 -23 10 0 6 -22 10 -49 10 -28 0 -53 5 -56 10 -3 6 -28 10
-55 10 -26 0 -50 5 -52 10 -2 6 -29 14 -61 17 -31 3 -57 10 -57 14 0 5 -43 9
-95 9 -57 0 -95 4 -95 10 0 6 -45 10 -115 10 -70 0 -115 -4 -115 -10z"/>
<path d="M462 645 c0 -16 2 -22 5 -12 2 9 2 23 0 30 -3 6 -5 -1 -5 -18z"/>
</g>
</svg>
